#tb 0: 1/5
#media_type 0: video
#codec_id 0: rawvideo
#dimensions 0: 320x240
#sar 0: 1/1
#tb 1: 1/44100
#media_type 1: audio
#codec_id 1: pcm_s16le
#sample_rate 1: 44100
#channel_layout_name 1: mono
0,          0,          0,        1,   230400, 0x88c4d19a
1,          0,          0,     1024,     2048, 0x0d9816e4
1,       1024,       1024,     1024,     2048, 0x561e1644
1,       2048,       2048,     1024,     2048, 0xbb1710c4
1,       3072,       3072,     1024,     2048, 0xc8750504
1,       4096,       4096,     1024,     2048, 0x6f47ef87
1,       5120,       5120,     1024,     2048, 0x1014eb40
1,       6144,       6144,     1024,     2048, 0xf79ef855
1,       7168,       7168,     1024,     2048, 0x87f9043b
1,       8192,       8192,     1024,     2048, 0x0f310535
0,          1,          1,        1,   230400, 0x0d77c977
1,       9216,       9216,     1024,     2048, 0x4bb9f0c9
1,      10240,      10240,     1024,     2048, 0x8c80eb15
1,      11264,      11264,     1024,     2048, 0xd7aeee75
1,      12288,      12288,     1024,     2048, 0x09e513b3
1,      13312,      13312,     1024,     2048, 0x397904fb
1,      14336,      14336,     1024,     2048, 0x6e0ff010
1,      15360,      15360,     1024,     2048, 0x9d58ef15
1,      16384,      16384,     1024,     2048, 0xfd00fbab
1,      17408,      17408,     1024,     2048, 0xe51e0e85
0,          2,          2,        1,   230400, 0x242629d7
1,      18432,      18432,     1024,     2048, 0xf7d001a3
1,      19456,      19456,     1024,     2048, 0xac4aef6b
1,      20480,      20480,     1024,     2048, 0x1f82f5a1
1,      21504,      21504,     1024,     2048, 0x128ff92f
1,      22528,      22528,     1024,     2048, 0xf42103b5
1,      23552,      23552,     1024,     2048, 0xa71d0c91
1,      24576,      24576,     1024,     2048, 0x9a7ef6b0
1,      25600,      25600,     1024,     2048, 0x835fed69
0,          3,          3,        1,   230400, 0x62cdc018
1,      26624,      26624,     1024,     2048, 0x41e4f65d
1,      27648,      27648,     1024,     2048, 0x1a0107c9
1,      28672,      28672,     1024,     2048, 0x8bbd0340
1,      29696,      29696,     1024,     2048, 0x8f3df8eb
1,      30720,      30720,     1024,     2048, 0xd523f334
1,      31744,      31744,     1024,     2048, 0x20f1f9e1
1,      32768,      32768,     1024,     2048, 0x7d110145
1,      33792,      33792,     1024,     2048, 0xc942046f
1,      34816,      34816,     1024,     2048, 0xfc6efe66
0,          4,          4,        1,   230400, 0x248ad058
1,      35840,      35840,     1024,     2048, 0x0bffec65
1,      36864,      36864,     1024,     2048, 0x7285f4a6
1,      37888,      37888,     1024,     2048, 0xcfc80cb2
1,      38912,      38912,     1024,     2048, 0x37220b4e
1,      39936,      39936,     1024,     2048, 0xdeb0ef53
1,      40960,      40960,     1024,     2048, 0x6293f4dc
1,      41984,      41984,     1024,     2048, 0x8beef772
1,      43008,      43008,     1024,     2048, 0x2bd6fac3
1,      44032,      44032,       68,      136, 0x4f3f502a
0,          5,          5,        1,   230400, 0x223d134f
1,      44100,      44100,     9600,    19200, 0x00000000
0,          6,          6,        1,   230400, 0xbf1c3d34
1,      53700,      53700,     9600,    19200, 0x00000000
0,          7,          7,        1,   230400, 0xae0efe96
1,      63300,      63300,     9600,    19200, 0x00000000
0,          8,          8,        1,   230400, 0x0cd624d1
1,      72900,      72900,     9600,    19200, 0x00000000
0,          9,          9,        1,   230400, 0x6dedf2c0
1,      82500,      82500,     5700,    11400, 0x00000000
0,         10,         10,        1,   230400, 0x88c4d19a
1,      88200,      88200,     1024,     2048, 0xae3d17b0
1,      89224,      89224,     1024,     2048, 0x245c040f
1,      90248,      90248,     1024,     2048, 0x0003ef0e
1,      91272,      91272,     1024,     2048, 0xaa0107db
1,      92296,      92296,     1024,     2048, 0x2422f0d3
1,      93320,      93320,     1024,     2048, 0xa40303b4
1,      94344,      94344,     1024,     2048, 0x9cb2ed11
1,      95368,      95368,     1024,     2048, 0xeb30f4ee
1,      96392,      96392,     1024,     2048, 0xb1b7ef23
0,         11,         11,        1,   230400, 0x0d77c977
1,      97416,      97416,     1024,     2048, 0x31fbf467
1,      98440,      98440,     1024,     2048, 0x3c4afe9d
1,      99464,      99464,     1024,     2048, 0xd6e3f7f5
1,     100488,     100488,     1024,     2048, 0x47d00c1e
1,     101512,     101512,     1024,     2048, 0xd679ea8e
1,     102536,     102536,     1024,     2048, 0x934c04ac
1,     103560,     103560,     1024,     2048, 0x6716f813
1,     104584,     104584,     1024,     2048, 0xc43bfaf0
1,     105608,     105608,     1024,     2048, 0x5f34fd62
0,         12,         12,        1,   230400, 0x242629d7
1,     106632,     106632,     1024,     2048, 0x4cfffa50
1,     107656,     107656,     1024,     2048, 0x9dc601c0
1,     108680,     108680,     1024,     2048, 0x0e35f234
1,     109704,     109704,     1024,     2048, 0xa0d5093d
1,     110728,     110728,     1024,     2048, 0x2790efba
1,     111752,     111752,     1024,     2048, 0x4e7ffe72
1,     112776,     112776,     1024,     2048, 0xa84ae939
1,     113800,     113800,     1024,     2048, 0x5ef2fd53
0,         13,         13,        1,   230400, 0x62cdc018
1,     114824,     114824,     1024,     2048, 0x80c4fb5e
1,     115848,     115848,     1024,     2048, 0xfe2e0056
1,     116872,     116872,     1024,     2048, 0x0b130222
1,     117896,     117896,     1024,     2048, 0x0416efba
1,     118920,     118920,     1024,     2048, 0x61820177
1,     119944,     119944,     1024,     2048, 0xb7cce675
1,     120968,     120968,     1024,     2048, 0x8d37f8ea
1,     121992,     121992,     1024,     2048, 0x5f0ef493
1,     123016,     123016,     1024,     2048, 0x83ebfb33
0,         14,         14,        1,   230400, 0x248ad058
1,     124040,     124040,     1024,     2048, 0x444b0066
1,     125064,     125064,     1024,     2048, 0x7404f70e
1,     126088,     126088,     1024,     2048, 0xe8d3fcee
1,     127112,     127112,     1024,     2048, 0x0f40eb47
1,     128136,     128136,     1024,     2048, 0x5aabfb7e
1,     129160,     129160,     1024,     2048, 0xad25eca7
1,     130184,     130184,     1024,     2048, 0xa915003e
1,     131208,     131208,     1024,     2048, 0x6e9bff3f
1,     132232,     132232,     1024,     2048, 0x4682ef96
1,     133256,     133256,     1024,     2048, 0x1ae1ef3b
1,     134280,     134280,     1024,     2048, 0x9c03ecbe
1,     135304,     135304,     1024,     2048, 0x1a9b02c7
1,     136328,     136328,     1024,     2048, 0x68c4e994
1,     137352,     137352,     1024,     2048, 0x0d2c050d
1,     138376,     138376,     1024,     2048, 0x7e28f55b
1,     139400,     139400,     1024,     2048, 0xad57fdb0
1,     140424,     140424,     1024,     2048, 0x77d909eb
1,     141448,     141448,     1024,     2048, 0xbe1bf5bd
1,     142472,     142472,     1024,     2048, 0x80cf05c8
1,     143496,     143496,     1024,     2048, 0x766de3be
1,     144520,     144520,     1024,     2048, 0xa0cd04ae
1,     145544,     145544,     1024,     2048, 0x3414e18d
1,     146568,     146568,     1024,     2048, 0xb35b0089
1,     147592,     147592,     1024,     2048, 0xa23feb09
1,     148616,     148616,     1024,     2048, 0x80930434
1,     149640,     149640,     1024,     2048, 0xaaaa0908
1,     150664,     150664,     1024,     2048, 0xb777f8a4
1,     151688,     151688,     1024,     2048, 0xd3690b05
1,     152712,     152712,     1024,     2048, 0xc5b6de63
1,     153736,     153736,     1024,     2048, 0xa2940c3b
1,     154760,     154760,     1024,     2048, 0xdd67dc40
1,     155784,     155784,     1024,     2048, 0x0d4d080a
1,     156808,     156808,     1024,     2048, 0x1a77eb2d
1,     157832,     157832,     1024,     2048, 0xf6170e5c
1,     158856,     158856,     1024,     2048, 0x20b50495
1,     159880,     159880,     1024,     2048, 0x0f1afbc0
1,     160904,     160904,     1024,     2048, 0x9d47076a
1,     161928,     161928,     1024,     2048, 0xbdbddfd3
1,     162952,     162952,     1024,     2048, 0xd7550c5a
1,     163976,     163976,     1024,     2048, 0x0de9da1e
1,     165000,     165000,     1024,     2048, 0x694d1347
1,     166024,     166024,     1024,     2048, 0x6312f60e
1,     167048,     167048,     1024,     2048, 0x407913e3
1,     168072,     168072,     1024,     2048, 0x37adfe4e
1,     169096,     169096,     1024,     2048, 0xe2b2ffec
1,     170120,     170120,     1024,     2048, 0xda4d0bcc
1,     171144,     171144,     1024,     2048, 0x2538ea72
1,     172168,     172168,     1024,     2048, 0xf4990ab2
1,     173192,     173192,     1024,     2048, 0xf3f3de97
1,     174216,     174216,     1024,     2048, 0xcc9204ab
1,     175240,     175240,     1024,     2048, 0x14e6ec05
1,     176264,     176264,      136,      272, 0x3b2e8aa4
0,         20,         20,        1,   230400, 0x88c4d19a
1,     176400,     176400,     1024,     2048, 0x10861b0d
1,     177424,     177424,     1024,     2048, 0xde791c27
1,     178448,     178448,     1024,     2048, 0xea8ef369
1,     179472,     179472,     1024,     2048, 0x7b960c4f
1,     180496,     180496,     1024,     2048, 0x7a36fb45
1,     181520,     181520,     1024,     2048, 0xd38803ef
1,     182544,     182544,     1024,     2048, 0x941cf829
1,     183568,     183568,     1024,     2048, 0xa1ccf85e
1,     184592,     184592,     1024,     2048, 0xfb6cfb81
0,         21,         21,        1,   230400, 0x0d77c977
1,     185616,     185616,     1024,     2048, 0x6fc9f330
1,     186640,     186640,     1024,     2048, 0x7a9b0104
1,     187664,     187664,     1024,     2048, 0x1cbcfcd2
1,     188688,     188688,     1024,     2048, 0xe6840893
1,     189712,     189712,     1024,     2048, 0x2d5efccb
1,     190736,     190736,     1024,     2048, 0x6ae70319
1,     191760,     191760,     1024,     2048, 0x2aa3fb26
1,     192784,     192784,     1024,     2048, 0x7731f514
1,     193808,     193808,     1024,     2048, 0x2fa5ff8f
0,         22,         22,        1,   230400, 0x242629d7
1,     194832,     194832,     1024,     2048, 0x39fdf115
1,     195856,     195856,     1024,     2048, 0xfe220483
1,     196880,     196880,     1024,     2048, 0x0715f901
1,     197904,     197904,     1024,     2048, 0xcaa20556
1,     198928,     198928,     1024,     2048, 0xd3f7ff20
1,     199952,     199952,     1024,     2048, 0x491dfb8c
1,     200976,     200976,     1024,     2048, 0x2c9ff2f5
1,     202000,     202000,     1024,     2048, 0x6e1aeba2
0,         23,         23,        1,   230400, 0x62cdc018
1,     203024,     203024,     1024,     2048, 0xbb260261
1,     204048,     204048,     1024,     2048, 0xfe59e93d
1,     205072,     205072,     1024,     2048, 0xf5170547
1,     206096,     206096,     1024,     2048, 0x15d9ff1c
1,     207120,     207120,     1024,     2048, 0x896304ef
1,     208144,     208144,     1024,     2048, 0x6f1f03d6
1,     209168,     209168,     1024,     2048, 0xcc5bf748
1,     210192,     210192,     1024,     2048, 0x220c0449
1,     211216,     211216,     1024,     2048, 0xf870ef99
0,         24,         24,        1,   230400, 0x248ad058
1,     212240,     212240,     1024,     2048, 0xf9d8fcb8
1,     213264,     213264,     1024,     2048, 0x2ccff371
1,     214288,     214288,     1024,     2048, 0xe749fece
1,     215312,     215312,     1024,     2048, 0x007903be
1,     216336,     216336,     1024,     2048, 0x4b8af9b7
1,     217360,     217360,     1024,     2048, 0x57a10154
1,     218384,     218384,     1024,     2048, 0x9920f83f
1,     219408,     219408,     1024,     2048, 0xcbf40168
1,     220432,     220432,       68,      136, 0xecf24010
